<svg style="max-height: 500px" version="1.1" id="Layer_1" xmlns="http://www.w3.org/2000/svg" xmlns:xlink="http://www.w3.org/1999/xlink" x="0px" y="0px" viewBox="528.7150393152185 362.9332 326.64476958296007 224.812" xml:space="preserve" width="326.64476958296007" height="224.812">
<g>
	<g>
		<path fill="#E3AF6F" d="M382.1,246.2c-52.5,0-95-42.5-95-95c0-17.8,4.9-34.5,13.5-48.8c-40.3,11-69.9,47.9-69.9,91.6&#10;&#9;&#9;&#9;c0,52.5,42.5,95,95,95c34.6,0,64.9-18.5,81.5-46.2C399.2,245,390.8,246.2,382.1,246.2z"/>
		<path fill="#E8B97F" d="M255.2,174.3c0-24.3,9.1-46.4,24.1-63.2c-29,16.3-48.6,47.3-48.6,82.9c0,52.5,42.5,95,95,95&#10;&#9;&#9;&#9;c28.2,0,53.5-12.3,70.9-31.8c-13.7,7.7-29.6,12.1-46.4,12.1C297.7,269.3,255.2,226.8,255.2,174.3z"/>
		<polygon fill="#F2C185" points="341.9,108.1 351.5,132.5 375.9,142.1 351.5,151.7 341.9,176.1 332.3,151.7 307.9,142.1 &#10;&#9;&#9;&#9;332.3,132.5"/>
		<polygon fill="#F2C185" points="367,174.9 370.9,184.9 381,188.9 370.9,192.9 367,202.9 363,192.9 353,188.9 363,184.9"/>
		<circle fill="#F2C185" cx="324.5" cy="194.5" r="5.6"/>
		<circle fill="#F2C185" cx="386.5" cy="157.8" r="5.6"/>
	</g>
	<g>
		<circle fill="#CC3532" cx="692.2" cy="199.1" r="96.7"/>
		<path fill="#BF312F" d="M737.4,113.6c7.2,13.5,11.2,28.9,11.2,45.2c0,53.4-43.3,96.7-96.7,96.7c-16.3,0-31.7-4.1-45.2-11.2&#10;&#9;&#9;&#9;c16.2,30.6,48.4,51.5,85.5,51.5c53.4,0,96.7-43.3,96.7-96.7C788.9,162,768,129.8,737.4,113.6z"/>
		<circle fill="#AA2222" cx="696.9" cy="125.4" r="4.7"/>
		<circle fill="#AA2222" cx="692.2" cy="229.8" r="4.7"/>
		<circle fill="#AA2222" cx="611.3" cy="186.1" r="4.7"/>
		<circle fill="#AA2222" cx="722.8" cy="157.8" r="4.7"/>
		<circle fill="#AA2222" cx="636.1" cy="137.4" r="4.7"/>
		<circle fill="#AA2222" cx="718.1" cy="278.7" r="4.7"/>
		<circle fill="#AA2222" cx="656.8" cy="276.6" r="4.7"/>
		<circle fill="#AA2222" cx="772.3" cy="186.1" r="4.7"/>
		<circle fill="#AA2222" cx="756.5" cy="245.8" r="4.7"/>
		<path fill="#BF312F" d="M723.7,199.3h-79.5c-2,0-3.6-1.6-3.6-3.6l0,0c0-2,1.6-3.6,3.6-3.6h79.5c2,0,3.6,1.6,3.6,3.6l0,0&#10;&#9;&#9;&#9;C727.3,197.7,725.7,199.3,723.7,199.3z"/>
		<path fill="#BF312F" d="M757.9,181h-79.5c-2,0-3.6-1.6-3.6-3.6v0c0-2,1.6-3.6,3.6-3.6h79.5c2,0,3.6,1.6,3.6,3.6v0&#10;&#9;&#9;&#9;C761.5,179.4,759.8,181,757.9,181z"/>
		<path fill="#BF312F" d="M682.5,216.9H603c-2,0-3.6-1.6-3.6-3.6v0c0-2,1.6-3.6,3.6-3.6h79.5c2,0,3.6,1.6,3.6,3.6v0&#10;&#9;&#9;&#9;C686.1,215.3,684.5,216.9,682.5,216.9z"/>
		<path fill="#BF312F" d="M731.9,145.2h-79.5c-2,0-3.6-1.6-3.6-3.6l0,0c0-2,1.6-3.6,3.6-3.6h79.5c2,0,3.6,1.6,3.6,3.6l0,0&#10;&#9;&#9;&#9;C735.5,143.6,733.9,145.2,731.9,145.2z"/>
		<path fill="#BF312F" d="M714.5,246.2H635c-2,0-3.6-1.6-3.6-3.6l0,0c0-2,1.6-3.6,3.6-3.6h79.5c2,0,3.6,1.6,3.6,3.6l0,0&#10;&#9;&#9;&#9;C718.1,244.6,716.5,246.2,714.5,246.2z"/>
	</g>
	<g>
		<g>
			
				<ellipse transform="matrix(0.9621 -0.2728 0.2728 0.9621 -13.4377 301.5858)" fill="#01A2A6" cx="1078" cy="199.1" rx="81.7" ry="81.7"/>
			<path fill="#019599" d="M1095.1,119.2c8.9,9.3,15.8,20.9,19.5,34.2c12.3,43.4-12.9,88.6-56.3,100.9c-13.3,3.8-26.7,4-39.3,1.3&#10;&#9;&#9;&#9;&#9;c20.3,21.2,51.2,30.7,81.4,22.2c43.4-12.3,68.6-57.5,56.3-100.9C1148.1,146.7,1123.7,125.3,1095.1,119.2z"/>
			
				<ellipse transform="matrix(0.9621 -0.2728 0.2728 0.9621 -7.2144 288.625)" fill="#01868A" cx="1034.5" cy="170.3" rx="4" ry="4"/>
			
				<ellipse transform="matrix(0.9621 -0.2728 0.2728 0.9621 -19.5446 288.2468)" fill="#01868A" cx="1027" cy="214.4" rx="4" ry="4"/>
			
				<ellipse transform="matrix(0.9621 -0.2728 0.2728 0.9621 2.1141 301.6218)" fill="#01868A" cx="1085.9" cy="143.2" rx="4" ry="4"/>
			
				<ellipse transform="matrix(0.9621 -0.2728 0.2728 0.9621 -30.9305 309.2802)" fill="#01868A" cx="1096.9" cy="265.9" rx="4" ry="4"/>
			
				<ellipse transform="matrix(0.9621 -0.2728 0.2728 0.9621 -7.8657 320.3635)" fill="#01868A" cx="1148.3" cy="188.5" rx="4" ry="4"/>
			
				<ellipse transform="matrix(0.9621 -0.2728 0.2728 0.9621 -9.9151 306.9131)" fill="#01868A" cx="1098.9" cy="189.1" rx="4" ry="4"/>
			
				<ellipse transform="matrix(0.9621 -0.2728 0.2728 0.9621 -18.9755 299.2644)" fill="#01868A" cx="1066.9" cy="217.9" rx="4" ry="4"/>
		</g>
		<path fill="#98B8D7" d="M1123,130.9c1.2,0.8,2.4,1.6,3.6,2.5c47.3-5.4,82.6,1.2,87.6,18.8c4.6,16.3-17.8,38.1-55.1,57.3&#10;&#9;&#9;&#9;c-19.8,10.2-43.9,19.6-70.4,27.2s-52,12.1-74.2,13.8c-41.9,3.3-72.4-3.5-77-19.8c-5-17.7,21.6-41.7,64.7-62c0.5-1.4,1.1-2.7,1.7-4&#10;&#9;&#9;&#9;c-61.1,25.8-100.5,58.6-93.9,82.1c6.7,23.5,57.4,30.7,123,20.6c19.2-3,39.6-7.4,60.5-13.3s40.7-12.9,58.5-20.4&#10;&#9;&#9;&#9;c61.1-25.8,100.5-58.6,93.9-82.1S1188.6,120.8,1123,130.9z"/>
		<path fill="#7DA8D1" d="M1154.4,127.3c40.9-1.8,70,5.9,74.7,22.5c6.1,21.3-29.8,51.2-85.4,74.7c-16.2,6.9-34.2,13.2-53.2,18.6&#10;&#9;&#9;&#9;c-19.1,5.4-37.7,9.4-55.1,12.1c-59.7,9.2-105.8,2.6-111.9-18.7c-4.7-16.6,16-38.5,51.8-58.4c-44.4,23.1-70.8,49.1-65.2,68.7&#10;&#9;&#9;&#9;c6.7,23.5,57.4,30.7,123,20.6c19.2-3,39.6-7.4,60.5-13.3s40.7-12.9,58.5-20.4c61.1-25.8,100.5-58.6,93.9-82.1&#10;&#9;&#9;&#9;C1240.4,131.9,1204.2,123.7,1154.4,127.3z"/>
	</g>
	<g>
		<path fill="#CC3532" d="M262.8,519c-2.2,0.9-4.7-0.3-5.5-2.5c-0.8-2.2,0.5-4.6,2.6-5.4l208-80.8c2-0.8,3-3.1,2.2-5.1l-0.2-0.5&#10;&#9;&#9;&#9;c-0.8-2-3.1-3-5.1-2.2l-175.1,68c-2.1,0.8-4.7-0.1-5.6-2.2c-0.9-2.2,0.1-4.7,2.4-5.6l154.8-60.2c2-0.8,3-3.1,2.2-5.1l-0.2-0.5&#10;&#9;&#9;&#9;c-0.8-2-3.1-3-5.1-2.2l-122.8,47.7c-2.1,0.8-4.7-0.1-5.6-2.2c-0.9-2.2,0.1-4.7,2.4-5.6l96.8-37.6c2-0.8,3-3.1,2.2-5.1l-0.2-0.5&#10;&#9;&#9;&#9;c-0.8-2-3.1-3-5.1-2.2l-147.3,57.2c-2.1,0.8-4.7-0.1-5.6-2.2c-0.9-2.2,0.1-4.7,2.4-5.6l127.6-49.6c2-0.8,3-3.1,2.2-5.1l0,0&#10;&#9;&#9;&#9;c-0.8-2-3.1-3-5.1-2.2l-189,73.4l27,69.6l188.3-73.2c2-0.8,3-3.1,2.2-5.1v0c-0.8-2-3.1-3-5.1-2.2L262.8,519z"/>
		<path fill="#E64543" d="M312.3,454.5l96.8-37.6c2-0.8,3-3.1,2.2-5.1l-0.2-0.5c-0.2-0.5-0.5-1-0.9-1.3l-120.4,46.8&#10;&#9;&#9;&#9;c-1.6,0.6-3.3,0.3-4.5-0.8l-26.6,10.4c-2.1,0.8-4.7-0.1-5.6-2.2c-0.9-2.2,0.1-4.7,2.4-5.6l127.6-49.6c2-0.8,3-3.1,2.2-5.1&#10;&#9;&#9;&#9;c-0.3-0.7-0.8-1.3-1.4-1.8l-68.3,26.5c-1.4,0.5-2.8,0.4-4-0.4l-120.4,46.8l15.7,40.4l77-29.9c0.3-1.3,1.2-2.4,2.6-2.9L409.2,435&#10;&#9;&#9;&#9;c0.1-0.7,0.1-1.5-0.2-2.2c-0.8-2-3.1-3-5.1-2.2l-141,54.8c-2.2,0.9-4.7-0.3-5.5-2.5c-0.8-2.2,0.5-4.6,2.6-5.4l49.7-19.3&#10;&#9;&#9;&#9;C309.8,456.5,310.8,455.1,312.3,454.5z"/>
		
			<ellipse transform="matrix(0.9321 -0.3622 0.3622 0.9321 -170.7665 108.7945)" fill="#E8B97F" cx="204.8" cy="509.9" rx="37.3" ry="37.3"/>
		<path fill="#E3AF6F" d="M191.3,475.1c-4.2,1.6-7.9,3.9-11,6.7c15.3-0.4,29.8,8.7,35.7,23.8c5.9,15.1,1.3,31.6-10.2,41.6&#10;&#9;&#9;&#9;c4.2-0.1,8.5-0.9,12.6-2.5c19.2-7.5,28.7-29.1,21.3-48.3C232.1,477.1,210.5,467.6,191.3,475.1z"/>
		
			<ellipse transform="matrix(0.9321 -0.3622 0.3622 0.9321 -168.6937 98.1855)" fill="#CF9F65" cx="177.5" cy="499" rx="2.4" ry="2.4"/>
		
			<ellipse transform="matrix(0.9321 -0.3622 0.3622 0.9321 -175.6642 110.7759)" fill="#CF9F65" cx="207.6" cy="523.9" rx="2.4" ry="2.4"/>
		
			<ellipse transform="matrix(0.9321 -0.3622 0.3622 0.9321 -180.7943 102.5189)" fill="#CF9F65" cx="183" cy="533.5" rx="2.4" ry="2.4"/>
		
			<ellipse transform="matrix(0.9321 -0.3622 0.3622 0.9321 -162.783 111.1159)" fill="#CF9F65" cx="215" cy="489.7" rx="2.4" ry="2.4"/>
		
			<ellipse transform="matrix(0.9321 -0.3622 0.3622 0.9321 -182.6008 107.8875)" fill="#CF9F65" cx="196.5" cy="541" rx="2.4" ry="2.4"/>
		
			<ellipse transform="matrix(0.9321 -0.3622 0.3622 0.9321 -176.11 118.3345)" fill="#CF9F65" cx="227.6" cy="528.9" rx="2.4" ry="2.4"/>
		
			<ellipse transform="matrix(0.9321 -0.3622 0.3622 0.9321 -168.5535 106.358)" fill="#CF9F65" cx="199.4" cy="502.7" rx="2.4" ry="2.4"/>
		
			<ellipse transform="matrix(0.9321 -0.3622 0.3622 0.9321 -161.9187 101.1742)" fill="#CF9F65" cx="188.9" cy="482.5" rx="2.4" ry="2.4"/>
		
			<ellipse transform="matrix(0.9321 -0.3622 0.3622 0.9321 -173.7878 101.3504)" fill="#CF9F65" cx="183.4" cy="514.2" rx="2.4" ry="2.4"/>
	</g>
	<g>
		<g>
			<polygon fill="#ADBCC3" points="663,542.5 651,582.1 653.6,539.6"/>
			<polygon fill="#9DB3BF" points="663,542.5 651,582.1 672.3,545.3"/>
		</g>
		<g>
			<g>
				<path fill="#2D4255" d="M640.2,458.1l-107.7-32.6c-2.3-0.7-3.7-3.2-3-5.5l13-42.9c0.7-2.3,3.2-3.7,5.5-3l107.7,32.6L640.2,458.1&#10;&#9;&#9;&#9;&#9;&#9;z"/>
				
					<rect x="547.2" y="380.7" transform="matrix(0.2893 -0.9572 0.9572 0.2893 23.3718 801.4277)" fill="#FFFFFF" width="8.5" height="8.5"/>
				
					<rect x="558.8" y="384.3" transform="matrix(0.2893 -0.9572 0.9572 0.2893 28.2767 815.0728)" fill="#FFFFFF" width="8.5" height="8.5"/>
				
					<rect x="570.5" y="387.8" transform="matrix(0.2893 -0.9572 0.9572 0.2893 33.1817 828.7178)" fill="#FFFFFF" width="8.5" height="8.5"/>
				
					<rect x="582.1" y="391.3" transform="matrix(0.2893 -0.9572 0.9572 0.2893 38.0866 842.3629)" fill="#FFFFFF" width="8.5" height="8.5"/>
				
					<rect x="593.8" y="394.8" transform="matrix(0.2893 -0.9572 0.9572 0.2893 42.9916 856.008)" fill="#FFFFFF" width="8.5" height="8.5"/>
				
					<rect x="605.4" y="398.3" transform="matrix(0.2893 -0.9572 0.9572 0.2893 47.8965 869.6531)" fill="#FFFFFF" width="8.5" height="8.5"/>
				
					<rect x="617" y="401.9" transform="matrix(0.2893 -0.9572 0.9572 0.2893 52.8015 883.2982)" fill="#FFFFFF" width="8.5" height="8.5"/>
				
					<rect x="628.7" y="405.4" transform="matrix(0.2893 -0.9572 0.9572 0.2893 57.7064 896.9432)" fill="#FFFFFF" width="8.5" height="8.5"/>
				
					<rect x="543.8" y="391.9" transform="matrix(0.2893 -0.9572 0.9572 0.2893 10.2531 806.1434)" fill="#FFFFFF" width="8.5" height="8.5"/>
				
					<rect x="555.5" y="395.4" transform="matrix(0.2893 -0.9572 0.9572 0.2893 15.1581 819.7885)" fill="#FFFFFF" width="8.5" height="8.5"/>
				
					<rect x="567.1" y="399" transform="matrix(0.2893 -0.9572 0.9572 0.2893 20.063 833.4335)" fill="#FFFFFF" width="8.5" height="8.5"/>
				
					<rect x="578.7" y="402.5" transform="matrix(0.2893 -0.9572 0.9572 0.2893 24.968 847.0786)" fill="#FFFFFF" width="8.5" height="8.5"/>
				
					<rect x="590.4" y="406" transform="matrix(0.2893 -0.9572 0.9572 0.2893 29.8729 860.7237)" fill="#FFFFFF" width="8.5" height="8.5"/>
				
					<rect x="602" y="409.5" transform="matrix(0.2893 -0.9572 0.9572 0.2893 34.7779 874.3688)" fill="#FFFFFF" width="8.5" height="8.5"/>
				
					<rect x="613.7" y="413" transform="matrix(0.2893 -0.9572 0.9572 0.2893 39.6828 888.0139)" fill="#FFFFFF" width="8.5" height="8.5"/>
				
					<rect x="625.3" y="416.6" transform="matrix(0.2893 -0.9572 0.9572 0.2893 44.5878 901.6589)" fill="#FFFFFF" width="8.5" height="8.5"/>
				
					<rect x="540.4" y="403.1" transform="matrix(0.2893 -0.9572 0.9572 0.2893 -2.8655 810.8591)" fill="#FFFFFF" width="8.5" height="8.5"/>
				
					<rect x="552.1" y="406.6" transform="matrix(0.2893 -0.9572 0.9572 0.2893 2.0394 824.5042)" fill="#FFFFFF" width="8.5" height="8.5"/>
				
					<rect x="563.7" y="410.2" transform="matrix(0.2893 -0.9572 0.9572 0.2893 6.9444 838.1492)" fill="#FFFFFF" width="8.5" height="8.5"/>
				
					<rect x="575.4" y="413.7" transform="matrix(0.2893 -0.9572 0.9572 0.2893 11.8493 851.7943)" fill="#FFFFFF" width="8.5" height="8.5"/>
				
					<rect x="587" y="417.2" transform="matrix(0.2893 -0.9572 0.9572 0.2893 16.7543 865.4394)" fill="#FFFFFF" width="8.5" height="8.5"/>
				
					<rect x="598.6" y="420.7" transform="matrix(0.2893 -0.9572 0.9572 0.2893 21.6592 879.0845)" fill="#FFFFFF" width="8.5" height="8.5"/>
				
					<rect x="610.3" y="424.2" transform="matrix(0.2893 -0.9572 0.9572 0.2893 26.5642 892.7296)" fill="#FFFFFF" width="8.5" height="8.5"/>
				
					<rect x="621.9" y="427.8" transform="matrix(0.2893 -0.9572 0.9572 0.2893 31.4691 906.3746)" fill="#FFFFFF" width="8.5" height="8.5"/>
				
					<rect x="537" y="414.3" transform="matrix(0.2893 -0.9572 0.9572 0.2893 -15.9842 815.5748)" fill="#FFFFFF" width="8.5" height="8.5"/>
				
					<rect x="548.7" y="417.8" transform="matrix(0.2893 -0.9572 0.9572 0.2893 -11.0792 829.2198)" fill="#FFFFFF" width="8.5" height="8.5"/>
				
					<rect x="560.3" y="421.4" transform="matrix(0.2893 -0.9572 0.9572 0.2893 -6.1743 842.8649)" fill="#FFFFFF" width="8.5" height="8.5"/>
				
					<rect x="572" y="424.9" transform="matrix(0.2893 -0.9572 0.9572 0.2893 -1.2693 856.51)" fill="#FFFFFF" width="8.5" height="8.5"/>
				
					<rect x="583.6" y="428.4" transform="matrix(0.2893 -0.9572 0.9572 0.2893 3.6356 870.1551)" fill="#FFFFFF" width="8.5" height="8.5"/>
				
					<rect x="595.3" y="431.9" transform="matrix(0.2893 -0.9572 0.9572 0.2893 8.5406 883.8002)" fill="#FFFFFF" width="8.5" height="8.5"/>
				
					<rect x="606.9" y="435.4" transform="matrix(0.2893 -0.9572 0.9572 0.2893 13.4455 897.4453)" fill="#FFFFFF" width="8.5" height="8.5"/>
				
					<rect x="618.5" y="438.9" transform="matrix(0.2893 -0.9572 0.9572 0.2893 18.3505 911.0904)" fill="#FFFFFF" width="8.5" height="8.5"/>
			</g>
			<g>
				<path fill="#2D4255" d="M728.6,484.9l107.7,32.6c2.3,0.7,4.8-0.6,5.5-3l13-42.9c0.7-2.3-0.6-4.8-3-5.5l-107.7-32.6L728.6,484.9z"/>
				
					<rect x="838.8" y="468.9" transform="matrix(0.2893 -0.9572 0.9572 0.2893 146.2298 1143.2065)" fill="#FFFFFF" width="8.5" height="8.5"/>
				
					<rect x="827.2" y="465.4" transform="matrix(0.2893 -0.9572 0.9572 0.2893 141.3249 1129.5615)" fill="#FFFFFF" width="8.5" height="8.5"/>
				
					<rect x="815.5" y="461.8" transform="matrix(0.2893 -0.9572 0.9572 0.2893 136.4199 1115.9164)" fill="#FFFFFF" width="8.5" height="8.5"/>
				
					<rect x="803.9" y="458.3" transform="matrix(0.2893 -0.9572 0.9572 0.2893 131.515 1102.2714)" fill="#FFFFFF" width="8.5" height="8.5"/>
				
					<rect x="792.2" y="454.8" transform="matrix(0.2893 -0.9572 0.9572 0.2893 126.61 1088.6262)" fill="#FFFFFF" width="8.5" height="8.5"/>
				
					<rect x="780.6" y="451.3" transform="matrix(0.2893 -0.9572 0.9572 0.2893 121.7051 1074.9812)" fill="#FFFFFF" width="8.5" height="8.5"/>
				
					<rect x="769" y="447.8" transform="matrix(0.2893 -0.9572 0.9572 0.2893 116.8001 1061.3361)" fill="#FFFFFF" width="8.5" height="8.5"/>
				
					<rect x="757.3" y="444.2" transform="matrix(0.2893 -0.9572 0.9572 0.2893 111.8952 1047.691)" fill="#FFFFFF" width="8.5" height="8.5"/>
				
					<rect x="835.4" y="480.1" transform="matrix(0.2893 -0.9572 0.9572 0.2893 133.1112 1147.9224)" fill="#FFFFFF" width="8.5" height="8.5"/>
				
					<rect x="823.8" y="476.6" transform="matrix(0.2893 -0.9572 0.9572 0.2893 128.2062 1134.2772)" fill="#FFFFFF" width="8.5" height="8.5"/>
				
					<rect x="812.1" y="473" transform="matrix(0.2893 -0.9572 0.9572 0.2893 123.3013 1120.6321)" fill="#FFFFFF" width="8.5" height="8.5"/>
				
					<rect x="800.5" y="469.5" transform="matrix(0.2893 -0.9572 0.9572 0.2893 118.3963 1106.9871)" fill="#FFFFFF" width="8.5" height="8.5"/>
				
					<rect x="788.9" y="466" transform="matrix(0.2893 -0.9572 0.9572 0.2893 113.4914 1093.3419)" fill="#FFFFFF" width="8.5" height="8.5"/>
				
					<rect x="777.2" y="462.5" transform="matrix(0.2893 -0.9572 0.9572 0.2893 108.5864 1079.6969)" fill="#FFFFFF" width="8.5" height="8.5"/>
				
					<rect x="765.6" y="459" transform="matrix(0.2893 -0.9572 0.9572 0.2893 103.6815 1066.0518)" fill="#FFFFFF" width="8.5" height="8.5"/>
				
					<rect x="753.9" y="455.4" transform="matrix(0.2893 -0.9572 0.9572 0.2893 98.7765 1052.4067)" fill="#FFFFFF" width="8.5" height="8.5"/>
				
					<rect x="832" y="491.3" transform="matrix(0.2893 -0.9572 0.9572 0.2893 119.9925 1152.6381)" fill="#FFFFFF" width="8.5" height="8.5"/>
				
					<rect x="820.4" y="487.8" transform="matrix(0.2893 -0.9572 0.9572 0.2893 115.0876 1138.9929)" fill="#FFFFFF" width="8.5" height="8.5"/>
				
					<rect x="808.8" y="484.2" transform="matrix(0.2893 -0.9572 0.9572 0.2893 110.1826 1125.3479)" fill="#FFFFFF" width="8.5" height="8.5"/>
				
					<rect x="797.1" y="480.7" transform="matrix(0.2893 -0.9572 0.9572 0.2893 105.2777 1111.7028)" fill="#FFFFFF" width="8.5" height="8.5"/>
				
					<rect x="785.5" y="477.2" transform="matrix(0.2893 -0.9572 0.9572 0.2893 100.3727 1098.0577)" fill="#FFFFFF" width="8.5" height="8.5"/>
				
					<rect x="773.8" y="473.7" transform="matrix(0.2893 -0.9572 0.9572 0.2893 95.4678 1084.4126)" fill="#FFFFFF" width="8.5" height="8.5"/>
				
					<rect x="762.2" y="470.2" transform="matrix(0.2893 -0.9572 0.9572 0.2893 90.5628 1070.7676)" fill="#FFFFFF" width="8.5" height="8.5"/>
				
					<rect x="750.5" y="466.6" transform="matrix(0.2893 -0.9572 0.9572 0.2893 85.6579 1057.1224)" fill="#FFFFFF" width="8.5" height="8.5"/>
				
					<rect x="828.7" y="502.5" transform="matrix(0.2893 -0.9572 0.9572 0.2893 106.8739 1157.3538)" fill="#FFFFFF" width="8.5" height="8.5"/>
				
					<rect x="817" y="498.9" transform="matrix(0.2893 -0.9572 0.9572 0.2893 101.9689 1143.7086)" fill="#FFFFFF" width="8.5" height="8.5"/>
				
					<rect x="805.4" y="495.4" transform="matrix(0.2893 -0.9572 0.9572 0.2893 97.064 1130.0636)" fill="#FFFFFF" width="8.5" height="8.5"/>
				
					<rect x="793.7" y="491.9" transform="matrix(0.2893 -0.9572 0.9572 0.2893 92.159 1116.4185)" fill="#FFFFFF" width="8.5" height="8.5"/>
				
					<rect x="782.1" y="488.4" transform="matrix(0.2893 -0.9572 0.9572 0.2893 87.2541 1102.7734)" fill="#FFFFFF" width="8.5" height="8.5"/>
				
					<rect x="770.4" y="484.9" transform="matrix(0.2893 -0.9572 0.9572 0.2893 82.3491 1089.1283)" fill="#FFFFFF" width="8.5" height="8.5"/>
				
					<rect x="758.8" y="481.3" transform="matrix(0.2893 -0.9572 0.9572 0.2893 77.4442 1075.4833)" fill="#FFFFFF" width="8.5" height="8.5"/>
				
					<rect x="747.2" y="477.8" transform="matrix(0.2893 -0.9572 0.9572 0.2893 72.5392 1061.8381)" fill="#FFFFFF" width="8.5" height="8.5"/>
			</g>
		</g>
		<path fill="#BECED6" d="M730.1,462.4l-78.7-23.8l19.9-65.9c2.1-7.1,9.6-11.1,16.7-8.9l53.1,16c7.1,2.1,11.1,9.6,8.9,16.7&#10;&#9;&#9;&#9;L730.1,462.4z"/>
		<path fill="#ADBCC3" d="M724.3,507.4l-93-28.1l25.4-83.9c0.7-2.2,3-3.5,5.3-2.8l84.9,25.7c2.2,0.7,3.5,3,2.8,5.3L724.3,507.4z"/>
		<polygon fill="#ADBCC3" points="696.4,548.1 632,528.6 631.8,477.8 724.8,505.9"/>
		<path fill="#A7BCC7" d="M750,396.5c2.1-7.1-1.9-14.5-8.9-16.7l-26.5-8l-23.8,78.7l39.4,11.9L750,396.5z"/>
		<path fill="#9DB3BF" d="M749.7,423.5c0.7-2.2-0.6-4.6-2.8-5.3l-42.5-12.8l-26.6,87.9l46.5,14.1L749.7,423.5z"/>
		<polygon fill="#9DB3BF" points="724.8,505.9 678.3,491.8 664.2,538.3 696.4,548.1"/>
		<path fill="#2D4255" d="M731.3,515.1l-110.2-33.3c-5.5-1.6-8.5-7.4-6.9-12.9v0c1.6-5.5,7.4-8.5,12.9-6.9l110.2,33.3&#10;&#9;&#9;&#9;c5.5,1.6,8.5,7.4,6.9,12.9l0,0C742.5,513.7,736.8,516.7,731.3,515.1z"/>
		<path fill="#FFFFFF" d="M721.8,459.9l-62-18.7c-4.3-1.3-6.7-5.8-5.4-10v0c1.3-4.3,5.8-6.7,10-5.4l62,18.7c4.3,1.3,6.7,5.8,5.4,10&#10;&#9;&#9;&#9;v0C730.5,458.8,726,461.2,721.8,459.9z"/>
		<path fill="#2D4255" d="M696.3,557l-69.2-20.9c-2.3-0.7-3.6-3.1-2.9-5.4l0,0c0.7-2.3,3.1-3.6,5.4-2.9l69.2,20.9&#10;&#9;&#9;&#9;c2.3,0.7,3.6,3.1,2.9,5.4l0,0C701,556.4,698.6,557.7,696.3,557z"/>
		
			<ellipse transform="matrix(0.2893 -0.9572 0.9572 0.2893 -94.0057 1036.592)" fill="#2D4255" cx="651.1" cy="581.6" rx="5.3" ry="5.3"/>
	</g>
	<g>
		<path fill="#84A3B5" d="M1078,561.3h103.4v-17.6c0-13.9-4.8-27.4-13.6-38.2l-89.8-110V561.3z"/>
		<path fill="#9DB3BF" d="M1078,561.3H974.6v-17.6c0-13.9,4.8-27.4,13.6-38.2l89.8-110V561.3z"/>
		<g>
			<rect x="1046.7" y="366.6" fill="#BECED6" width="31.3" height="87.7"/>
			
				<rect x="1078" y="366.6" transform="matrix(-1 -4.492374e-11 4.492374e-11 -1 2187.2981 820.8151)" fill="#A7BCC7" width="31.3" height="87.7"/>
		</g>
		<g>
			<path fill="#ADBCC3" d="M1078,566.1h-41.7V437.2c0-23,18.7-41.7,41.7-41.7l0,0V566.1z"/>
			<path fill="#9DB3BF" d="M1078,566.1h41.7V437.2c0-23-18.7-41.7-41.7-41.7l0,0V566.1z"/>
		</g>
		<g>
			<g>
				<g>
					<path fill="#CC3532" d="M1006.5,536.7h-9v-27.9c0-5,4-9,9-9l0,0V536.7z"/>
					<path fill="#BA302E" d="M1006.5,536.7h9v-27.9c0-5-4-9-9-9l0,0V536.7z"/>
				</g>
				<g>
					<path fill="#BECED6" d="M1006.5,569h-12v-37.2c0-6.6,5.4-12,12-12l0,0V569z"/>
					<path fill="#A7BCC7" d="M1006.5,569h12v-37.2c0-6.6-5.4-12-12-12l0,0V569z"/>
				</g>
			</g>
			<g>
				<g>
					<path fill="#CC3532" d="M1149.5,536.7h-9v-27.9c0-5,4-9,9-9l0,0V536.7z"/>
					<path fill="#BA302E" d="M1149.5,536.7h9v-27.9c0-5-4-9-9-9l0,0V536.7z"/>
				</g>
				<g>
					<path fill="#BECED6" d="M1149.5,569h-12v-37.2c0-6.6,5.4-12,12-12l0,0V569z"/>
					<path fill="#A7BCC7" d="M1149.5,569h12v-37.2c0-6.6-5.4-12-12-12l0,0V569z"/>
				</g>
			</g>
		</g>
		<path fill="#2D4255" d="M1090.5,469.1h-25c-9.3,0-16.9-7.6-16.9-16.9v-1.8c0-9.3,7.6-16.9,16.9-16.9h25c9.3,0,16.9,7.6,16.9,16.9&#10;&#9;&#9;&#9;v1.8C1107.4,461.5,1099.8,469.1,1090.5,469.1z"/>
		<path fill="#2D4255" d="M1116.6,580h-77.3c-5.2,0-9.4-4.2-9.4-9.4v0c0-5.2,4.2-9.4,9.4-9.4h77.3c5.2,0,9.4,4.2,9.4,9.4v0&#10;&#9;&#9;&#9;C1126,575.8,1121.8,580,1116.6,580z"/>
		<path fill="#CC3532" d="M1068.9,327.6l-22.2,38.9h62.6l-22.2-38.9C1083.1,320.6,1072.9,320.6,1068.9,327.6z"/>
		<path fill="#BA302E" d="M1087.1,327.6c-2-3.5-5.5-5.3-9.1-5.3v44.2h31.3L1087.1,327.6z"/>
	</g>
	<g>
		
			<ellipse transform="matrix(0.9356 -0.3531 0.3531 0.9356 -253.32 163.4007)" fill="#AD3A46" cx="321.2" cy="776.1" rx="112.5" ry="23.4"/>
		<g>
			<g>
				
					<ellipse transform="matrix(0.9356 -0.3531 0.3531 0.9356 -252.763 162.2617)" fill="#CC4452" cx="318.4" cy="774" rx="61" ry="10.4"/>
				<path fill="#BD3F4C" d="M301,727.8c-90.9,34.3-156.6,83.5-146.7,109.8c9.9,26.3,91.7,19.8,182.6-14.5&#10;&#9;&#9;&#9;&#9;&#9;c90.9-34.3,156.6-83.5,146.7-109.8C473.6,687,391.9,693.5,301,727.8z M326.1,789.6c-50.1,18.9-93.3,27.3-96.6,18.7&#10;&#9;&#9;&#9;&#9;&#9;s34.7-30.8,84.8-49.7c50.1-18.9,93.3-27.3,96.6-18.7C414.2,748.5,376.2,770.7,326.1,789.6z"/>
				<path fill="#CC4452" d="M301,727.8c-90.9,34.3-156.6,83.5-146.7,109.8c9.9,26.3,91.7,19.8,182.6-14.5&#10;&#9;&#9;&#9;&#9;&#9;c90.9-34.3,156.6-83.5,146.7-109.8C473.6,687,391.9,693.5,301,727.8z M334.2,815.9c-77.3,29.2-146.8,34.7-155.3,12.3&#10;&#9;&#9;&#9;&#9;&#9;s47.4-64.2,124.7-93.3s146.8-34.7,155.3-12.3C467.4,745,411.5,786.7,334.2,815.9z"/>
				
					<ellipse transform="matrix(0.9356 -0.3531 0.3531 0.9356 -250.901 159.8807)" fill="#CF9F65" cx="312.8" cy="767.7" rx="15.8" ry="15.8"/>
				<path fill="#CC4452" d="M303.9,735.5c-22.4,8.5-44.2,18.7-64.7,31.1c-10.2,6.2-20,13.1-28.9,20.9c-4.4,3.9-8.6,8.2-11.9,12.9&#10;&#9;&#9;&#9;&#9;&#9;c-1.6,2.4-3,4.8-3.9,7.4c-0.8,2.5-1,5.1-0.1,7.2c0.9,2.1,2.7,3.8,5,5c2.3,1.2,5,2,7.8,2.5c5.6,1.1,11.4,1.2,17.2,1.1&#10;&#9;&#9;&#9;&#9;&#9;c11.7-0.4,23.4-2.3,35-4.6c11.6-2.4,23.1-5.4,34.5-8.8c11.4-3.4,22.6-7.3,33.8-11.5c11.1-4.2,22.1-8.7,32.9-13.7&#10;&#9;&#9;&#9;&#9;&#9;c10.8-4.9,21.4-10.2,31.7-16.1c10.2-5.9,20.3-12.2,29.3-19.7c4.5-3.7,8.8-7.7,12.2-12.2c1.7-2.2,3.2-4.6,4.2-7&#10;&#9;&#9;&#9;&#9;&#9;c0.9-2.4,1.2-4.9,0.5-7.1c-0.7-2.1-2.5-4-4.8-5.3c-2.3-1.4-5-2.3-7.8-3c-5.6-1.3-11.5-1.8-17.4-1.9c-11.9,0-23.8,1.3-35.5,3.4&#10;&#9;&#9;&#9;&#9;&#9;C349.4,720.3,326.3,727,303.9,735.5z M303.5,734.6c11.2-4.2,22.6-8.1,34.1-11.6c11.5-3.5,23.1-6.6,34.9-8.9&#10;&#9;&#9;&#9;&#9;&#9;c11.8-2.4,23.7-4.3,35.9-4.7c6.1-0.2,12.2,0,18.3,1.2c3.1,0.6,6.1,1.5,9.1,3c1.5,0.8,2.9,1.8,4.2,3c1.3,1.2,2.4,2.8,3.1,4.5&#10;&#9;&#9;&#9;&#9;&#9;c0.7,1.7,1,3.6,0.9,5.4c-0.1,1.8-0.4,3.5-1,5.1c-1.1,3.2-2.7,6-4.5,8.6c-3.7,5.2-8,9.6-12.6,13.7c-4.6,4.1-9.4,7.8-14.4,11.4&#10;&#9;&#9;&#9;&#9;&#9;c-5,3.5-10,6.9-15.2,10c-20.8,12.6-42.8,22.9-65.4,31.4c-22.6,8.5-46,15.3-69.9,19.6c-6,1.1-12,1.9-18.1,2.5&#10;&#9;&#9;&#9;&#9;&#9;c-6.1,0.6-12.2,1-18.3,0.9c-6.1-0.1-12.4-0.5-18.5-2c-3.1-0.8-6.2-1.8-9.1-3.5c-1.5-0.9-2.9-1.9-4.1-3.2&#10;&#9;&#9;&#9;&#9;&#9;c-1.2-1.3-2.3-2.9-2.9-4.7c-0.6-1.8-0.8-3.6-0.7-5.4c0.1-1.8,0.6-3.4,1.1-5c1.2-3.1,2.9-5.8,4.8-8.3c3.8-5,8.3-9.1,13-13&#10;&#9;&#9;&#9;&#9;&#9;c9.4-7.7,19.6-14.2,30-20.2c10.4-6,21.2-11.4,32.1-16.4C281.2,743.4,292.3,738.8,303.5,734.6z"/>
			</g>
			<path fill="#FFFFFF" d="M302.8,729.8c-13.8,5.3-27.5,11-40.8,17.4c-13.3,6.4-26.4,13.4-39,21.2c-6.3,3.9-12.4,8-18.4,12.3&#10;&#9;&#9;&#9;&#9;c-6,4.4-11.7,9-17.1,14c-5.4,5-10.5,10.4-14.5,16.4c-2,3-3.7,6.3-4.7,9.6c-1,3.4-1.1,6.9,0.1,10.1c1.2,3.1,3.7,5.6,6.7,7.4&#10;&#9;&#9;&#9;&#9;c3,1.8,6.4,3,9.9,3.9c7,1.7,14.3,2.2,21.6,2.3c14.6,0,29.2-2,43.7-4.6c14.5-2.7,28.7-6.3,42.9-10.3c14.1-4.1,28.1-8.8,41.9-14&#10;&#9;&#9;&#9;&#9;c13.8-5.2,27.4-10.9,40.7-17.1c13.3-6.3,26.4-13,39-20.6c12.6-7.6,24.9-15.7,35.9-25.4c5.5-4.8,10.6-10.1,14.7-16&#10;&#9;&#9;&#9;&#9;c2-2.9,3.8-6.1,4.8-9.4c1.1-3.3,1.3-6.8,0.1-10c-1.1-3.2-3.6-5.7-6.6-7.6c-3-1.9-6.4-3.2-9.9-4.2c-7-1.9-14.4-2.6-21.7-2.8&#10;&#9;&#9;&#9;&#9;c-7.4-0.2-14.7,0.2-22.1,0.8c-7.3,0.7-14.7,1.6-22,2.9c-14.6,2.5-29,5.8-43.2,9.9C330.7,720,316.6,724.6,302.8,729.8z&#10;&#9;&#9;&#9;&#9; M302.8,729.8c13.8-5.2,27.9-10,42.1-14.1c14.2-4.1,28.6-7.7,43.2-10.4c14.6-2.7,29.3-4.7,44.2-4.7c7.4,0,14.9,0.5,22.3,2.3&#10;&#9;&#9;&#9;&#9;c3.7,0.9,7.3,2.2,10.6,4.2c1.7,1,3.2,2.2,4.6,3.7c1.4,1.5,2.5,3.2,3.2,5.1c0.7,1.9,1.1,3.9,1.1,5.9c0,2-0.4,4-0.9,5.9&#10;&#9;&#9;&#9;&#9;c-1.1,3.8-2.9,7.2-5,10.4c-4.2,6.4-9.4,11.8-14.9,16.9c-5.5,5.1-11.3,9.8-17.4,14.2c-6,4.4-12.2,8.6-18.6,12.5&#10;&#9;&#9;&#9;&#9;c-12.7,7.8-25.8,14.9-39.2,21.3c-13.4,6.4-27.1,12.2-41,17.5c-13.9,5.2-28,9.9-42.4,14c-14.3,4-28.8,7.4-43.5,9.9&#10;&#9;&#9;&#9;&#9;c-7.3,1.3-14.7,2.2-22.2,2.9c-7.4,0.7-14.9,1-22.4,0.8c-7.5-0.2-15-0.9-22.4-2.9c-3.7-1-7.3-2.4-10.6-4.5&#10;&#9;&#9;&#9;&#9;c-1.6-1.1-3.2-2.3-4.5-3.8c-1.3-1.5-2.4-3.3-3.1-5.2c-0.7-1.9-1-4-0.9-5.9c0.1-2,0.4-3.9,1-5.8c1.2-3.7,3-7.1,5.2-10.2&#10;&#9;&#9;&#9;&#9;c4.3-6.2,9.6-11.5,15.2-16.5c11.2-9.8,23.6-18.1,36.3-25.7c12.7-7.6,25.9-14.4,39.3-20.7C275.3,740.7,288.9,735,302.8,729.8z"/>
		</g>
	</g>
	<g>
		<g>
			<g>
				<path fill="#F3C17E" d="M697.1,612.7c0-2.7-2.2-5-5-5l0,0c-2.7,0-5,2.2-5,5v7.8c0,2.7,2.2,5,5,5l0,0c2.7,0,5-2.2,5-5V612.7z"/>
				<path fill="#F3C17E" d="M687.2,663c0,2.7,2.2,5,5,5l0,0c2.7,0,5-2.2,5-5v-26.8c0-2.7-2.2-5-5-5h0c-2.7,0-5,2.2-5,5L687.2,663z"/>
			</g>
			<g>
				<path fill="#F3C17E" d="M697.1,872.7c0,2.7-2.2,5-5,5l0,0c-2.7,0-5-2.2-5-5v-7.8c0-2.7,2.2-5,5-5l0,0c2.7,0,5,2.2,5,5V872.7z"/>
				<path fill="#F3C17E" d="M687.2,822.4c0-2.7,2.2-5,5-5l0,0c2.7,0,5,2.2,5,5v26.8c0,2.7-2.2,5-5,5h0c-2.7,0-5-2.2-5-5L687.2,822.4&#10;&#9;&#9;&#9;&#9;&#9;z"/>
			</g>
		</g>
		<g>
			<g>
				<path fill="#F3C17E" d="M631.5,627.7c-1.4-2.4-4.4-3.2-6.8-1.8v0c-2.4,1.4-3.2,4.4-1.8,6.8l3.9,6.8c1.4,2.4,4.4,3.2,6.8,1.8l0,0&#10;&#9;&#9;&#9;&#9;&#9;c2.4-1.4,3.2-4.4,1.8-6.8L631.5,627.7z"/>
				<path fill="#F3C17E" d="M648,676.2c1.4,2.4,4.4,3.2,6.8,1.8l0,0c2.4-1.4,3.2-4.4,1.8-6.8L643.2,648c-1.4-2.4-4.4-3.2-6.8-1.8&#10;&#9;&#9;&#9;&#9;&#9;l0,0c-2.4,1.4-3.2,4.4-1.8,6.8L648,676.2z"/>
			</g>
			<g>
				<path fill="#F3C17E" d="M761.4,852.8c1.4,2.4,0.6,5.4-1.8,6.8l0,0c-2.4,1.4-5.4,0.6-6.8-1.8l-3.9-6.8c-1.4-2.4-0.6-5.4,1.8-6.8&#10;&#9;&#9;&#9;&#9;&#9;v0c2.4-1.4,5.4-0.6,6.8,1.8L761.4,852.8z"/>
				<path fill="#F3C17E" d="M727.7,814.2c-1.4-2.4-0.6-5.4,1.8-6.8v0c2.4-1.4,5.4-0.6,6.8,1.8l13.4,23.2c1.4,2.4,0.6,5.4-1.8,6.8&#10;&#9;&#9;&#9;&#9;&#9;l0,0c-2.4,1.4-5.4,0.6-6.8-1.8L727.7,814.2z"/>
			</g>
		</g>
		<g>
			<g>
				<path fill="#F3C17E" d="M582.1,673.4c-2.4-1.4-5.4-0.6-6.8,1.8l0,0c-1.4,2.4-0.6,5.4,1.8,6.8l6.8,3.9c2.4,1.4,5.4,0.6,6.8-1.8&#10;&#9;&#9;&#9;&#9;&#9;l0,0c1.4-2.4,0.6-5.4-1.8-6.8L582.1,673.4z"/>
				<path fill="#F3C17E" d="M620.7,707.1c2.4,1.4,5.4,0.6,6.8-1.8l0,0c1.4-2.4,0.6-5.4-1.8-6.8l-23.2-13.4c-2.4-1.4-5.4-0.6-6.8,1.8&#10;&#9;&#9;&#9;&#9;&#9;l0,0c-1.4,2.4-0.6,5.4,1.8,6.8L620.7,707.1z"/>
			</g>
			<g>
				<path fill="#F3C17E" d="M807.2,803.4c2.4,1.4,3.2,4.4,1.8,6.8v0c-1.4,2.4-4.4,3.2-6.8,1.8l-6.8-3.9c-2.4-1.4-3.2-4.4-1.8-6.8v0&#10;&#9;&#9;&#9;&#9;&#9;c1.4-2.4,4.4-3.2,6.8-1.8L807.2,803.4z"/>
				<path fill="#F3C17E" d="M758.7,786.8c-2.4-1.4-3.2-4.4-1.8-6.8l0,0c1.4-2.4,4.4-3.2,6.8-1.8l23.2,13.4c2.4,1.4,3.2,4.4,1.8,6.8&#10;&#9;&#9;&#9;&#9;&#9;v0c-1.4,2.4-4.4,3.2-6.8,1.8L758.7,786.8z"/>
			</g>
		</g>
		<g>
			<g>
				<path fill="#F3C17E" d="M562.2,737.7c-2.7,0-5,2.2-5,5l0,0c0,2.7,2.2,5,5,5h7.8c2.7,0,5-2.2,5-5l0,0c0-2.7-2.2-5-5-5H562.2z"/>
				<path fill="#F3C17E" d="M612.5,747.7c2.7,0,5-2.2,5-5l0,0c0-2.7-2.2-5-5-5h-26.8c-2.7,0-5,2.2-5,5l0,0c0,2.7,2.2,5,5,5H612.5z"/>
			</g>
			<g>
				<path fill="#F3C17E" d="M822.1,737.7c2.7,0,5,2.2,5,5l0,0c0,2.7-2.2,5-5,5h-7.8c-2.7,0-5-2.2-5-5l0,0c0-2.7,2.2-5,5-5H822.1z"/>
				<path fill="#F3C17E" d="M771.9,747.7c-2.7,0-5-2.2-5-5l0,0c0-2.7,2.2-5,5-5h26.8c2.7,0,5,2.2,5,5l0,0c0,2.7-2.2,5-5,5H771.9z"/>
			</g>
		</g>
		<g>
			<g>
				<path fill="#F3C17E" d="M577.1,803.4c-2.4,1.4-3.2,4.4-1.8,6.8v0c1.4,2.4,4.4,3.2,6.8,1.8l6.8-3.9c2.4-1.4,3.2-4.4,1.8-6.8v0&#10;&#9;&#9;&#9;&#9;&#9;c-1.4-2.4-4.4-3.2-6.8-1.8L577.1,803.4z"/>
				<path fill="#F3C17E" d="M625.6,786.8c2.4-1.4,3.2-4.4,1.8-6.8l0,0c-1.4-2.4-4.4-3.2-6.8-1.8l-23.2,13.4&#10;&#9;&#9;&#9;&#9;&#9;c-2.4,1.4-3.2,4.4-1.8,6.8v0c1.4,2.4,4.4,3.2,6.8,1.8L625.6,786.8z"/>
			</g>
			<g>
				<path fill="#F3C17E" d="M802.2,673.4c2.4-1.4,5.4-0.6,6.8,1.8l0,0c1.4,2.4,0.6,5.4-1.8,6.8l-6.8,3.9c-2.4,1.4-5.4,0.6-6.8-1.8&#10;&#9;&#9;&#9;&#9;&#9;l0,0c-1.4-2.4-0.6-5.4,1.8-6.8L802.2,673.4z"/>
				<path fill="#F3C17E" d="M763.7,707.1c-2.4,1.4-5.4,0.6-6.8-1.8l0,0c-1.4-2.4-0.6-5.4,1.8-6.8l23.2-13.4c2.4-1.4,5.4-0.6,6.8,1.8&#10;&#9;&#9;&#9;&#9;&#9;h0c1.4,2.4,0.6,5.4-1.8,6.8L763.7,707.1z"/>
			</g>
		</g>
		<g>
			<g>
				<path fill="#F3C17E" d="M622.9,852.8c-1.4,2.4-0.6,5.4,1.8,6.8l0,0c2.4,1.4,5.4,0.6,6.8-1.8l3.9-6.8c1.4-2.4,0.6-5.4-1.8-6.8v0&#10;&#9;&#9;&#9;&#9;&#9;c-2.4-1.4-5.4-0.6-6.8,1.8L622.9,852.8z"/>
				<path fill="#F3C17E" d="M656.6,814.2c1.4-2.4,0.6-5.4-1.8-6.8v0c-2.4-1.4-5.4-0.6-6.8,1.8l-13.4,23.2c-1.4,2.4-0.6,5.4,1.8,6.8&#10;&#9;&#9;&#9;&#9;&#9;h0c2.4,1.4,5.4,0.6,6.8-1.8L656.6,814.2z"/>
			</g>
			<g>
				<path fill="#F3C17E" d="M752.9,627.7c1.4-2.4,4.4-3.2,6.8-1.8v0c2.4,1.4,3.2,4.4,1.8,6.8l-3.9,6.8c-1.4,2.4-4.4,3.2-6.8,1.8l0,0&#10;&#9;&#9;&#9;&#9;&#9;c-2.4-1.4-3.2-4.4-1.8-6.8L752.9,627.7z"/>
				<path fill="#F3C17E" d="M736.3,676.2c-1.4,2.4-4.4,3.2-6.8,1.8l0,0c-2.4-1.4-3.2-4.4-1.8-6.8l13.4-23.2c1.4-2.4,4.4-3.2,6.8-1.8&#10;&#9;&#9;&#9;&#9;&#9;l0,0c2.4,1.4,3.2,4.4,1.8,6.8L736.3,676.2z"/>
			</g>
		</g>
		<circle fill="#F3B562" cx="692.2" cy="742.7" r="79.7"/>
		<circle fill="#F3C17E" cx="692.2" cy="742.7" r="63.3"/>
	</g>
	<g>
		<circle fill="#22B573" cx="1078" cy="770.5" r="102.6"/>
		<path fill="#1FA669" d="M1120.5,677.1c5.9,12.9,9.2,27.3,9.2,42.5c0,56.6-45.9,102.6-102.6,102.6c-15.1,0-29.5-3.3-42.5-9.2&#10;&#9;&#9;&#9;c16.1,35.5,51.9,60.1,93.4,60.1c56.6,0,102.6-45.9,102.6-102.6C1180.6,729,1155.9,693.3,1120.5,677.1z"/>
		<g>
			<path fill="#22E086" d="M1082.7,830.8C1082.7,830.8,1082.7,830.8,1082.7,830.8C1082.7,830.9,1082.7,830.9,1082.7,830.8z"/>
			<path fill="#22E086" d="M1071.4,682.6c0.7,0.4,5-0.4,2.1-1.7C1072.2,680.3,1070.6,682.1,1071.4,682.6z"/>
			<path fill="#22E086" d="M1105.6,808.9c-0.1,0.5,1.1-0.2,0.4-0.4C1105.8,808.5,1105.6,808.6,1105.6,808.9z"/>
			<path fill="#22E086" d="M1109.5,806.6c-0.3,0.1-0.5,0.9-0.3,1.1C1109.5,808.1,1110.2,806.4,1109.5,806.6z"/>
			<path fill="#22E086" d="M1133.5,806.4c-0.4-0.3,0.5,1.3,0.6,1.4C1134.4,808.1,1134.3,807,1133.5,806.4z"/>
			<path fill="#22E086" d="M1094.2,779.9c-1.7-1.7-2.5,1.3-2.3,2.6c0.1,1.2,2,2.9,0.9,2.9c-1.1,0.7,1.3,1.6,1.5,1&#10;&#9;&#9;&#9;&#9;c-0.1-0.5-0.4-0.8-0.8-1.1c2.8-1.4,1.9,1.7,2.9,1.7c2.7-0.1-2.5-3.5-2.2-2.9C1093.5,783.1,1095.2,780.9,1094.2,779.9z"/>
			<path fill="#22E086" d="M1097.6,786.4c-0.9,0.3,0.4,1,0.2,1.2c-0.1,0-0.2-0.1-0.2-0.2c-0.4,0.4-0.1,1.8,0.6,1.7&#10;&#9;&#9;&#9;&#9;C1098.8,789.1,1099.5,785.9,1097.6,786.4z"/>
			<path fill="#22E086" d="M1080.9,778.3c0.1-0.9-2.5-0.4-2.7,0.5C1077.9,780.7,1080.7,779.9,1080.9,778.3z"/>
			<path fill="#22E086" d="M1069.1,678.1c0.7-0.5,2-1,1.9-2.1c-0.2-2-3.9-2.1-2.3,0.4c-0.9-0.6-0.7-1.5-1.7-1.9&#10;&#9;&#9;&#9;&#9;c-0.8-0.3-1.4,0.7-0.8,1.2c-1.6-1.1-4.3-0.8-2.4,1.5C1065.6,679.5,1067,679.5,1069.1,678.1z"/>
			<path fill="#22E086" d="M1070.3,680.9c0,0.2,1.9-0.3,0.1-1C1069.4,679.6,1070.3,681,1070.3,680.9z"/>
			<path fill="#22E086" d="M1129.8,853.1c-1.2,0.2-0.9-0.4-2.2,0.2c-1.2,0.5-2.1,2.4-3.2,3.2c-1.3,0.9-6,2.5-5.7,4.5&#10;&#9;&#9;&#9;&#9;c0.5,4.4,6.2-1.7,7-2.6c0.9-0.9,1.6-1.1,2.6-2.2C1128.1,856.4,1131,852.9,1129.8,853.1z"/>
			<path fill="#22E086" d="M1130.3,805c0.2,0-4.6,1.8-4.5,1.5C1124.9,809,1132.6,805.4,1130.3,805z"/>
			<path fill="#22E086" d="M1128.5,811.2c-0.7-0.8-2.4-0.7-3.2-1.8c-1.1-1.5,0.2-1.6-0.4-2.4c-1.2-1.6-5.5-3.1-7.2-3.7&#10;&#9;&#9;&#9;&#9;c-1.1-0.5-2.3-0.8-3.5-1c-0.9-0.1-1.7,0.2-2.3,0.8c-1.9,0,0,1.1-2.1,0.5c-0.3-0.1-0.4-2.1-1.1-2.4c-0.5-0.2-3-0.4-3.3,0.4&#10;&#9;&#9;&#9;&#9;c-0.3,1.2,2.6,1.2,3.2,1.6c-1.9,1.9-1.2,1.2,1.2,1.9c1.9,0.6,3.5,0.9,4.4,2.7c0.5,1-1.2,1-0.9,1.7c0,0.1,3.4,0.7,3.6,0.7&#10;&#9;&#9;&#9;&#9;c1.7,0.1,1.8-0.5,3-0.7c2.1-0.4,2.1-0.2,4,0.9c1.1,0.7,2.8,1,3.8,1.6c-0.3-0.3-0.4-0.6-0.3-1.1&#10;&#9;&#9;&#9;&#9;C1127.6,810.8,1129.5,811.6,1128.5,811.2z"/>
			<path fill="#22E086" d="M1084.5,804.1c2.3,0.6,2.6,0.9,3.9-0.5c2.3-2.5,1.9-4.9,1.9-7.4c0-1,1.8-2.6-1.1-2.9&#10;&#9;&#9;&#9;&#9;c-1.1-0.1-2.7,1.6-3.6,2.4c-0.8,0.6-6,3.9-5.7,4.5C1081.2,803.2,1081.5,803.3,1084.5,804.1z"/>
			<path fill="#22E086" d="M1096.1,806.2c0.9-1.3-1.3-2.2-1.2-3.3c0.1-0.7,1.7-0.9,1.6-0.9c-0.7-1.9-1.2,0.2-2.4-0.3&#10;&#9;&#9;&#9;&#9;c0,0-2.8-1.3-0.8-1.5c0.6,0,6.3-0.2,5.2-1.3c0,0-4.7,0.2-5,0.4c-1.8,0.9-3,7.9-1.2,7.5c0.9-0.2,0.5-3,1-3&#10;&#9;&#9;&#9;&#9;C1093.2,803.7,1095.5,807.1,1096.1,806.2z"/>
			<path fill="#22E086" d="M1093,811.2c-0.5-1.2-2-0.1-1.8-0.1C1091.4,811.1,1093.5,812.2,1093,811.2z"/>
			<path fill="#22E086" d="M1092.1,809.9c0.1,0.8,2.8,0.2,3.2,0.1C1097.4,809.7,1091.9,808.8,1092.1,809.9z"/>
			<path fill="#22E086" d="M1096.7,811.9c0.5-0.1,3.8-1.5,3.8-1.9C1100.8,808,1094.9,812.4,1096.7,811.9z"/>
			<path fill="#22E086" d="M1113.3,742.1c-0.5-0.2-0.7,0.7-0.6,1.1C1112.6,743.3,1113.7,742.3,1113.3,742.1z"/>
			<path fill="#22E086" d="M1097.9,802.5c0.2,0.2,0.5,0.3,0.8,0.2c0.2,0,0.5-0.1,0.7-0.1C1098.9,802.3,1098.4,802.3,1097.9,802.5z"/>
			<path fill="#22E086" d="M1096.8,789.4c-0.2,0.3,1.2,0.5,0.8-0.1C1097.4,789.2,1097.1,789.2,1096.8,789.4z"/>
			<path fill="#22E086" d="M1094.6,787.8c0,0.4,0.8,1,1.1,0.6c-1.6,2.2,0.8,1,1.1,1c0.2-0.3,0.3-0.6,0.2-1&#10;&#9;&#9;&#9;&#9;C1096.8,788.1,1094.6,787.6,1094.6,787.8z M1096.5,789.4c-0.2-0.2-0.2-0.5,0-0.7C1096.5,788.5,1096.8,789.4,1096.5,789.4z"/>
			<path fill="#22E086" d="M1091.9,787c0,0.4,0.5,0.2,0.5-0.1C1092.2,786.7,1092,786.7,1091.9,787z"/>
			<path fill="#22E086" d="M1089.4,790.7c-0.1,0.2,2.6-1.4,2.6-1.9C1091.9,787.5,1089.6,790.3,1089.4,790.7z"/>
			<path fill="#22E086" d="M1091.4,809.8c-0.9-1-2.7,0.5-3.6,0.3C1088.2,810.2,1091.5,810,1091.4,809.8z"/>
			<path fill="#22E086" d="M1097,792.3c0.4,0.2,0.4,1.4,0.9,1.4c0.5,0,1.9-0.1,2.2-0.8c0.1-0.5-0.5-4-1.1-3.6c0,0-4.3,3-4.2,2.9&#10;&#9;&#9;&#9;&#9;C1094.6,792.9,1096.6,792.2,1097,792.3z"/>
			<path fill="#22E086" d="M1002.8,812.7c0-0.4-0.1-0.4-0.4-0.1C1002.5,812.8,1002.6,812.8,1002.8,812.7z"/>
			<path fill="#22E086" d="M1008.5,814.4c-1.1,1.5-2.2,1.6-3.6,2.7c-2.1,1.6-1.2,1.9-1.9,4c-0.6,2-2.5,8.3,2.1,6.6&#10;&#9;&#9;&#9;&#9;c2.3-0.8,3.1-5,3.8-7C1009.5,819.2,1011.8,811.1,1008.5,814.4z"/>
			<path fill="#22E086" d="M1083.7,809.6c0.5,0,3.5,0.7,3.5-0.1c0-0.9-2.4-0.3-2.8-0.9c0.3-0.2,0.5-0.3,0.8-0.4&#10;&#9;&#9;&#9;&#9;c-0.1-0.6-6.1-0.7-6.8-1c-3.2-1.4-0.4-1.8-2.3-3.9c0.2,0.3,0.5,0.5,0.9,0.6c2,0.4-2.5-1.9-1.7-1c-1.1-1.2-1.7-2.8-2.9-3.9&#10;&#9;&#9;&#9;&#9;c-0.9-0.8-8.3-6-8.5-3.9c-0.1,1,3.2,3.3,3.9,4c1.5,1.7,2.5,4.1,4.1,5.7c0.8,0.7,1.6,1.1,2.5,1.7c0.6,0.3,1.2,0.4,1.9,0.4&#10;&#9;&#9;&#9;&#9;c0,0.3,0,0.6,0,0.9C1078.3,808.9,1081,809.8,1083.7,809.6z"/>
			<path fill="#22E086" d="M1068.5,802.2c-0.1-0.2-0.2-0.3-0.4-0.5C1067.3,801.4,1068.5,803,1068.5,802.2z"/>
			<path fill="#22E086" d="M1078.4,803.3c-0.8,0.3,0.6,0.7,0.5,0.6C1078.9,804,1079.1,803,1078.4,803.3z"/>
			<path fill="#22E086" d="M1045.8,793.5c1.6,2.1,2.2-2,0.5-3.6C1045.9,789.5,1045.2,792.8,1045.8,793.5z"/>
			<path fill="#22E086" d="M1101.6,763.4c2.5-1.2-2.6-5.1,2.3-4.7c-1.8,0.8-1.1,2.5,0.2,1.4c0.4-0.3,1.1-2,1.1-2&#10;&#9;&#9;&#9;&#9;c0.3,0.1,0.1,1.6,0.7,1.4c0.4-0.1,1-0.7,1.4-0.9c1.2-0.4,2.1-1,3-1.9c1.3,1.8,0.8-2.4,0.8-2.9c0-1.1,0.6-6.1-1.6-6.3&#10;&#9;&#9;&#9;&#9;c-2.1-0.2-0.6,2.7-0.7,3.8c-0.3,2.8-1.1,2-2.4,2.6c-0.8,0.4-0.2,2-0.8,2.5c-0.5,0.5-1.5,0.1-2,0.4c-1.1,0.7-2.2,0.9-2.9,2.2&#10;&#9;&#9;&#9;&#9;C1100.3,759.6,1099.6,764.4,1101.6,763.4z"/>
			<path fill="#22E086" d="M1073,675.6c1.1,0.4,5,0.5,2.8-1.1C1075.3,674.2,1070.8,674.8,1073,675.6z"/>
			<path fill="#22E086" d="M1079.1,795.9c-0.2-0.3-0.3-0.3-0.4,0.1C1078.8,796.1,1079.3,796.2,1079.1,795.9z"/>
			<path fill="#22E086" d="M1136.8,846.7c-0.7-0.4-1.1,0.1-2-0.6c-0.7-0.6,0-1.3-1-0.8c1.1-0.6-1.3-4.8-1.7-4.4&#10;&#9;&#9;&#9;&#9;c-0.7,0.7,0.8,5.3,0.3,6.6c-0.4,1-1.1,1.1-1.4,2.1c0.2,0.7,0.3,1.3,0.5,2c-0.3,0.4-0.5,0.8-0.8,1.2&#10;&#9;&#9;&#9;&#9;C1130.7,854.2,1138.1,847.5,1136.8,846.7z"/>
			<path fill="#22E086" d="M1126.7,838.7c1.1-1.7,2.9-5.5,2.5-7.7c-0.3-1.9-1.8-2.9-3-4.9c-1.2-2-3.3-3.3-4.2-5.4&#10;&#9;&#9;&#9;&#9;c-0.4-0.9-2-7.5-3.1-7.9c-2.1-0.8-1.7,4.4-2.1,5.3c-0.3,0.7-0.8,1.8-1.6,2.1c-1.2,0.5-1.1-1.5-0.8-1.3c-1.1-0.6-1.7,0.4-3-0.8&#10;&#9;&#9;&#9;&#9;c-1.7-1.7,0.6-3.1,0.2-3.8c-0.3-0.5-5.1-1.9-5.4-1.5c-0.1,0.3,0,0.5,0.2,0.5c-0.5,0.1-3.3,2.7-3.5,2.7c-1.4,0.7-1.7-0.1-3.5,0.1&#10;&#9;&#9;&#9;&#9;c-1.8,0.3-2,1.7-3.1,2.5c-0.7,0.5-1.5,0.3-2.1,0.8c-1.1,0.9-0.9,2.2-2.3,3c-1.1,0.7-2.9,0.7-4.1,1c-1.7,0.5-3.5,0.9-4.4,2.7&#10;&#9;&#9;&#9;&#9;c-0.6,1.1,0.4,3.3-0.5,4.1c0.4-2-0.8,0.2-0.4,0c0,0,0.1,0.2,0.1,0.4c0-0.2,0-0.4,0-0.5c0.4-0.1,0.4,0.1,0,0.5&#10;&#9;&#9;&#9;&#9;c0.3,1.6,0.7,7,0.7,7.6c0,1.6-1.7,1.5-0.1,3c1.4,1.4,3.9-0.5,5.3-0.8c4.2-0.9,9.9-4,14.2-2.3c2.2,0.9,1.7,3.2,2.8,3.8&#10;&#9;&#9;&#9;&#9;c1.6,0.8,1.9-2.4,3.2-1.9c0.2,0.1-1.5,3-1.3,3c0.5-0.2,1-0.5,1.4-0.9c0.3,0.3-0.2,1.4,0,1.5c1.3,0.8,0.6,2.9,2.2,4.2&#10;&#9;&#9;&#9;&#9;c0.9,0.7,4.6,0.4,4.2,0c1.4,1.5,0.1,1.2,2.2,1.1c0.6,0,3.1-1.4,3.6-1.8C1123.1,845.7,1125.2,841.1,1126.7,838.7z"/>
			<path fill="#22E086" d="M1082.7,830.8C1082.7,830.7,1082.7,830.7,1082.7,830.8C1082.7,830.7,1082.7,830.7,1082.7,830.8&#10;&#9;&#9;&#9;&#9;C1082.7,830.7,1082.7,830.7,1082.7,830.8z"/>
			<path fill="#22E086" d="M1113.5,852.6c-0.7,0.6-0.5,3.7,0.3,4.3c2.9,2.4,2.8-4,3.4-4.1C1116.2,853,1114,852.2,1113.5,852.6z"/>
			<path fill="#22E086" d="M1119.7,710.9c-0.5,0.3-0.8,1.3-0.1,1.7C1119.7,712.5,1120.6,710.3,1119.7,710.9z"/>
			<path fill="#22E086" d="M1111.5,801.6c0.3-0.1-0.5-0.4-0.4-0.3C1111.2,801.6,1111.3,801.7,1111.5,801.6z"/>
			<path fill="#22E086" d="M1064.5,782.1c1.4,0.8,2,2.2,2.4,4.4c0.6,2.9,0.6,4,1.9,6.5c1,1.8,1.4,4.3,3.5,5.3c2.5,1.3,1.8-0.1,1-2.1&#10;&#9;&#9;&#9;&#9;c-0.6-1.5-8.7-9.2-3.6-10.1c1.5-0.3,5.3,3.7,5.1,4.7c-0.1,0.3,3.3-1.9,3.5-2.1c1.6-1.8,2-3.2,0.5-5.4c-0.9-1.3-3.6-2.2-3.8-3.8&#10;&#9;&#9;&#9;&#9;c-0.2-1,1-2.7,1.9-3c1.2-0.3,1.5,0.8,2.3,0.8c0.9,0,1.3-0.6,2.5-1.1c1.9-0.8,4.6-1.3,6.1-2.7c1-0.9,5.6-8.7,2.5-8.5&#10;&#9;&#9;&#9;&#9;c0.5-0.4,0.5-2.1,0.5-2.3c-0.3-1.1-2.3-1.9-2.8-3c-1.1-2.6,0.1-1.4,0.8-3.2c0.4-1.1,2.4-0.9-0.3-1.8c-0.5-0.2-2.4,0.5-2,0.6&#10;&#9;&#9;&#9;&#9;c-2.6-0.6-2.6-2.1-0.3-3.9c3.6-2.7,0,0.5,1.7,1.8c0.5,0.3,1.7-1.4,2.3-1.3c1.5,0.1,1,0.4,1.9,0.9c-0.4-0.2,2.5,2.6,2.1,2.1&#10;&#9;&#9;&#9;&#9;c0.5,0.9,0,3.6,1.2,4.2c1.5,0.8,3.1-1.6,3.1-2.5c0-2-3.4-3-3.6-5c-0.2-1.5,2.3-4.9,3.5-5.7c0.7-0.4,1.6,0,2.4-0.7&#10;&#9;&#9;&#9;&#9;c1-0.8,1.5-3,2-4.3c0.7-2,0.8-3.8,0.6-5.9c-0.2-1.7-1.4-3.4-0.6-5.2c1.9,1,2.4,4.4,3,6.3c0.3,0.7,1.9,3.4,1.9,4&#10;&#9;&#9;&#9;&#9;c0.2-1.9,0.7,0.3,1.3-0.5c0.5-0.7-1.4-2-1.5-2.6c-0.2-0.7,0.2-3.1,0.1-3.2c-0.6-0.9-5.2-9-5.9-8.4c-0.5,0.4,0.8,2.7,0.8,3.5&#10;&#9;&#9;&#9;&#9;c0,0.1,0,0.2-0.1,0.2c0-0.1,0-0.1,0.1-0.2c-0.1-0.9-2.7-2.8-2.9-2.8c-1-0.2-1.2,1-2.1,1c-0.4,0-0.6-1.2-0.8-1.1&#10;&#9;&#9;&#9;&#9;c-0.1,0.1-0.2,0.3-0.2,0.5c0,0.1,0,0.2-0.2,0.3c0-0.1,0.1-0.2,0.2-0.3c-0.2-0.5-1.9-0.8-1.8-0.8c-1-1.5-0.3,0.4,0-1.9&#10;&#9;&#9;&#9;&#9;c0.4-2.6,1.7-7.3,3.8-8.6c1.4-0.8,5.4-1.9,6.7-1.9c1.8,0.1,0.4,1.2,2.3,0.8c0.7-0.1,1.8-0.9,1.8-1.7c0,0.2-0.9-1.4-0.9-2&#10;&#9;&#9;&#9;&#9;c-0.1-1.8,0-3.3,1.9-3.7c2.1-0.5,1.9,1.8,2.6,1.7c1.4-0.2,1.6-1.9,2.1-3c-0.4,0.6-1.8-2.1-0.8-2.3c3.2-0.6-0.4,12.3-0.4,13.1&#10;&#9;&#9;&#9;&#9;c-0.2,2.2,5.5,14.3,7,12.4c0.3-0.4,0.5-3.5,0.6-4.1c0.1-0.8,1-2.9,1-3.4c0-0.6-1-1.6-1.2-2.3c-0.3-1,1.1-0.6,0.9-1.2&#10;&#9;&#9;&#9;&#9;c-0.2-0.6-2.9-3.8-2.9-3c0-1.5-1.8-2.7-1.2-4.4c0.6-1.8,2-0.9,2.3-1.1c0.9-0.7,0.9-1.3,1.9-1.8c0.4-0.2,1.7,0.8,2.1,0.4&#10;&#9;&#9;&#9;&#9;c0.6-0.6,0.5-3.3,0.8-4.3c0.3-0.8,0.6-1.6,1.2-2.2c0.3-0.3,2.3-0.9,2.3-0.9c1.7-3.1-4.8-3.5-4.8-5.5c0-0.5,1.4-0.3,1.4-2.2&#10;&#9;&#9;&#9;&#9;c0-0.5-2.2-3-1.7-3.2c0.6,0.3,1.2,0.6,1.7,0.9c0.6-0.4,1.2-0.7,1.8-1c0.9,0,0.4,0.9,1.7,0.6c3.5-0.8,1.3-0.8,0.4-3.4&#10;&#9;&#9;&#9;&#9;c-0.6-1.7,1-3.8-2.3-4c-1.5-0.1-2.9,1.1-2,2.5c-1.8-2.9-6.7-2.5-9.6-2.8c-1.2-0.1-8.6-1.1-9.4,0.4c-0.6,1.1,4.2,4,1.1,3.7&#10;&#9;&#9;&#9;&#9;c-1.4-0.1-1.5-2-2-2.1c-2.2-0.5-0.1,0.7-1.7,1.3c-2.3,0.9-5.3,1.6-7.2,0.8c-1.8-0.8-1.9-2.5-4.5-1.8c-2.2,0.6-2.3,1.5-4.6,1.4&#10;&#9;&#9;&#9;&#9;c-1.1-0.1-2.5-1-3.5-1.2c0.1-0.3,0-0.6-0.3-0.8c-1-0.4-2-0.4-3,0.1c-0.9,0-6.5-0.4-6.8,0.6c0.3,0.2,0.6,0.4,0.9,0.5&#10;&#9;&#9;&#9;&#9;c0.1,0.2-1.2,1-0.8,1.4c0,0,2.4,0.8,1.7,1.7c-0.5,0.7-6.3,2.1-6.9,1c-0.2-0.3,0.7,2.4,0.6,2.5c-0.5,0.5-4.2-1.3-4.6-1.8&#10;&#9;&#9;&#9;&#9;c0.8-0.3,0.9,0.2,0.4-1.1c-0.5-1.3-3.6-2.9-5.4-2.5c-2.9,0.6-0.6,2-3.3,2.8c-1.7,0.5-3.3-0.7-4.7-0.9c-1.1-0.1-6.3,1.5-6.5,1.4&#10;&#9;&#9;&#9;&#9;c0.3,0.2,0.7,0.3,1,0.1c0.2,0.6-1.4,2.1-2,2c0.1,0,1.3-7.5,0.5-8.6c-0.8-1.1-3-2.1-4.4-1.9c-0.5,0.1-2.7,1.3-2.6,1.5&#10;&#9;&#9;&#9;&#9;c-0.6-1.4-4.4-4.5-5.4-1.6c-0.7,2.1,1.8,4.4-2,5.6c0.2-0.1,0-1-0.8-0.7c-0.9,0.3-2.5,2-3.2,2.6c-0.7,0.6-2.6,1.8-2.6,2.9&#10;&#9;&#9;&#9;&#9;c0,1.9,2.4,1.2,2.6,2.6c0.1,0.6-6-0.1-4.8,3c1.1,2.8,5.4,1.4,4.3,5.3c1.1-3.7-6.7-3.3-6.6-3.2c0,0.2,1.7,0.4,1.4,1&#10;&#9;&#9;&#9;&#9;c-0.2,0.4-2.3-0.6-1.7,0.6c0.3,0.2,0.6,0.4,0.9,0.5c0.7,0.2,1.5,0.2,1.6,0.6c0.1,0.3-0.7-0.1-1.6-0.6c-0.4-0.1-0.7-0.2-0.9-0.5&#10;&#9;&#9;&#9;&#9;c0,0,0,0,0-0.1c-1.3-0.8-2.5-1.9-1.8-2.2c-1.4,0.8,0.8,4,1.1,4.7c0.2,0.6,0.4,2.6,0.9,3c0.4,0.3,3,0.6,3,0.4&#10;&#9;&#9;&#9;&#9;c0,0.5-1.4,0.9-1.4,1.6c-0.1,1,0.9,1.5,0.5,2.7c-0.6,2-1.4,1.7-2.1,1.4c-0.3,0.3-0.7,0.4-1-0.1c0.3-0.2,0.7,0,1,0.1&#10;&#9;&#9;&#9;&#9;c0.6-0.6,1-1.9,1-2.2c0.2-1.6-1.7-4.2-2.4-5.5c-1-1.8-2.6-8.3-5.4-5.5c-0.7,0.7-1,4-0.7,5c0.2,1.2,3.8,4.8,3.9,4.7&#10;&#9;&#9;&#9;&#9;c-0.3,0.4-9.3-3.3-10.7-3c-0.4,0.1,4.5,3.6,2.4,3.9c-4.3,0.6-5.9-0.5-9.7,2.4c-1.5,1.1-1.4,2-3.1,1c0,0,0.1-1.1-0.1-1.9&#10;&#9;&#9;&#9;&#9;c-0.6,0.8-1.1,1.6-1.6,2.4c0.1,0.7,0.1,1.3,0,1.6c-0.1,0.2-0.7,0.3-1.3,0.5c-0.4,0.7-0.9,1.4-1.3,2c0.1,0.2,0.1,0.4,0.1,0.7&#10;&#9;&#9;&#9;&#9;c0,0.2-0.3,0.2-0.6,0.1c-1,1.6-1.9,3.3-2.8,5c0.7,0.3,1.5,1,0.7,1.7c-0.1,0.1-0.7-0.5-1-1c-5.4,10.7-9,22.5-10.4,34.9&#10;&#9;&#9;&#9;&#9;c0.5,0.5,1.2,0.7,1.9,0.4c-0.4,0.2,1.4-1.8,1.4-1.5c0.2-1.1-2.7-1.6-2.1-2.9c-0.3,0.5,2.9-0.8,2.5-0.9c1,0.3,0.7,0.4,1.3,1.2&#10;&#9;&#9;&#9;&#9;c-1.6-1.9,0.6,2.3,0.8,1.6c-0.1,0.8-1.5,0-0.2,1.3c0.7,0.8,2.4,1.6,3.4,1.8c2.2,0.5,5.1-1,7.4-0.6c-0.6,2.7-0.1,5.2-2.9,6.2&#10;&#9;&#9;&#9;&#9;c-4,1.4-8-1.5-11.8-1.6c-1.2,0-1.8,0.2-2.1,0.6c-0.1,1.9-0.2,3.8-0.2,5.7c0,20.6,6.1,39.9,16.6,55.9c0.1-0.1,0.2-0.2,0.2-0.3&#10;&#9;&#9;&#9;&#9;c0.8-1.4-0.1-3,0.5-4.3c1.1-2.5,4.5-2.7,5.9-4.9c2.1-3.2-0.5-6.4-0.5-9.6c-0.1-6.8,10.7-10,13.2-16.4c1.1-2.7,1.1-3-1.5-2.9&#10;&#9;&#9;&#9;&#9;c-4.1,0.1-4.5,2.1-7.7-1.2c-3.8-3.9-6.4-7.7-9.3-12.3c-1.1-1.8-3.1-6.3,0.5-3.5c2.4,1.8,3.5,5.8,5.4,8c1.4,1.7,2.3,2.6,3.2,4.7&#10;&#9;&#9;&#9;&#9;c0.6,1.4,0.4,2.5,1.9,2.9c2.4,0.7,7.7-2.4,9.6-3.4c2.2-1.2,3.8-2.2,5.4-3.9c0.6-0.6,2-1.8,2.1-2.7c0.2-2-1.3-1.3-2.4-2.2&#10;&#9;&#9;&#9;&#9;c-0.3-0.3-1.7-2.4-1.8-2.4c-1-0.3-1.5,1.1-2.6,1.5c-1.3,0.5-1.5,0.4-2.6,0c0.8,0.3-2-2-1.2-1.1c-0.9-1-4.9-4.5-2.4-5.1&#10;&#9;&#9;&#9;&#9;c0.9-0.2,2.2,1.6,2.9,2.1c1.5,1.1,2.6,1.4,4.5,1.9c0.4,0.1,1.1-0.6,1.6-0.5c0.6,0.2,0.9,1.4,1.4,1.6c1.6,0.6,3.5,0.7,5.3,0.6&#10;&#9;&#9;&#9;&#9;c1.7-0.1,3.4-0.8,5.1,0c1.6,0.7,2.2,3.1,4.3,2.7c-0.4,0.2-0.8,0.3-1.2,0.5c-0.2,0.2,3.3,3.6,4,0.6c1.2,1.8,1.2,4.8,2.2,6.8&#10;&#9;&#9;&#9;&#9;c0.6,1.4,2.9,7.6,4.3,8c2.3,0.7,3.3-2.8,3.6-4.4c0.4-2.7,0-2.6,1.8-4.4c2-2.1,6.4-7.8,10-6.7c1,0.3,3.2,3.3,3.8,4.3&#10;&#9;&#9;&#9;&#9;c0.3,0.5,0,2.2,0.6,2.6C1063,783.2,1064,781.8,1064.5,782.1z M1097.5,742.2c0.5,0,0.3,0.7,0.2,0.9&#10;&#9;&#9;&#9;&#9;C1097.5,743.4,1096.9,742.2,1097.5,742.2z M1122.5,694.6c0.2-0.2,0.4-0.2,0.6-0.1C1123.6,695.2,1121.9,694.7,1122.5,694.6z&#10;&#9;&#9;&#9;&#9; M1079.9,684.8c-0.1-0.3,0.8,1.1,0,0.9C1079.6,685.6,1080.1,684.9,1079.9,684.8z M1078.7,684.1c0.7,0-0.3,0.7-0.4,0.3&#10;&#9;&#9;&#9;&#9;C1078.3,684.2,1078.4,684.1,1078.7,684.1z M1074,688.7c0.3-0.1,0.5,0,0.6,0.2C1074.3,689.3,1073.9,688.7,1074,688.7z&#10;&#9;&#9;&#9;&#9; M991.1,729.6c-0.7,0.3-0.7-1-0.7-1C990.5,728.7,991.6,729.5,991.1,729.6z M983.9,754.7c-0.2,0.2-1.7,0.2-1.6,0&#10;&#9;&#9;&#9;&#9;C982.6,754,984.4,754.1,983.9,754.7z M997.4,753.4c-2.8,1.7-6-1-9-0.6c-3,0.4-6.5,2.4-5-2.5c0.9-3.2,2.3-3.3,4.5-2.5&#10;&#9;&#9;&#9;&#9;c0.1,0-0.1,1.4,1,1.5c0.4,0.1,3-0.3,2.8-1c-0.1-0.4-1.9-0.5-2.2-0.8c1-0.9,3-1.6,4.3-1.6C987.9,748.5,1000,751.8,997.4,753.4z&#10;&#9;&#9;&#9;&#9; M1012.5,758.9c-1.6,0.2-4.2,0.4-5.2-1.2c-0.8-1.3,0.3-2.6-0.1-3.7c-0.5-1.8-4.2-2.9-3.7-5.4c0.3-1.5,2.9-3.3,4.4-3&#10;&#9;&#9;&#9;&#9;c3.1,0.6,0.4,1.4,0,2.6c-0.7,2.1-0.4,0.7,1.1,2.9C1009.1,751.2,1012.8,758.8,1012.5,758.9z M1023.9,708.1&#10;&#9;&#9;&#9;&#9;c-0.1,0.2-1.2-1.4-1.2-1.4C1023.3,706.4,1024.4,707.5,1023.9,708.1z M1033,685.3c0.2,0,0.3,0.1,0.3,0.3&#10;&#9;&#9;&#9;&#9;C1033.3,685.5,1032.8,685.2,1033,685.3z M1037.9,688.5c-0.4,0.4-0.4,1.7,0,1.9c-0.9-0.5-1.5-1.2-1.8-2.1&#10;&#9;&#9;&#9;&#9;C1036.7,688.7,1037.3,688.7,1037.9,688.5c0.1-0.1,0.2-0.1,0.3-0.1C1038,688.4,1038,688.5,1037.9,688.5z M1038.4,688.2&#10;&#9;&#9;&#9;&#9;c0.3-0.4,0.6-0.7,0.9-1.1c-0.4,0-0.6-0.2-0.6-0.6c0,0,1,1,1.1,0.9C1039.3,687.7,1038.8,687.9,1038.4,688.2z"/>
			<path fill="#22E086" d="M1107.7,753.2c0.2-0.1,0.2-0.2,0-0.4C1107.5,753,1107.5,753.1,1107.7,753.2z"/>
			<path fill="#22E086" d="M1107.4,746.8c1.6,2.3,2-1.4,0.6-0.8c1.7-0.6,5,0.5,4.6-2.8c-0.4,0.3-4.9-2.2-4.9-1.9&#10;&#9;&#9;&#9;&#9;c-0.1,0.8,0.5,1.7,0.4,2.6C1107.9,745.1,1106.5,745.4,1107.4,746.8z"/>
			<path fill="#22E086" d="M1111.8,802.3c-0.1,0-0.9-0.1-0.5,0.1C1111.5,802.5,1111.7,802.4,1111.8,802.3z"/>
			<path fill="#22E086" d="M1115.3,740c-1.3-0.1-1.2,1.7-1.2,1.7C1114.2,741.7,1115.8,740.1,1115.3,740z"/>
			<path fill="#22E086" d="M1102.5,800.2c0.8-1.4,0.1-0.9-0.3-1.6c0.1,0.1,0.7-1.1,0.2-0.9c-0.7,0.3-1.5,2.9-1.1,3.5&#10;&#9;&#9;&#9;&#9;C1101.8,802.2,1102.5,800.2,1102.5,800.2z"/>
			<path fill="#22E086" d="M1116.7,738.7c-0.5-0.1-0.8,1.1-0.4,0.9C1116.3,739.5,1117.2,738.8,1116.7,738.7z"/>
			<path fill="#22E086" d="M1102.3,804.4c0.4-0.1,2.8,0.5,2.9-0.3C1105.5,801.8,1101.1,804.7,1102.3,804.4z"/>
			<path fill="#22E086" d="M1105.9,800.6c-0.2,0-0.4,0-0.7,0C1104.9,800.9,1106.2,801,1105.9,800.6z"/>
		</g>
	</g>
</g>
</svg>